<svg width="444" height="494" viewBox="0 0 444 494" fill="none" xmlns="http://www.w3.org/2000/svg">
<path d="M441.336 363.515L373.367 324.306V175.591L441.336 136.294V363.515ZM81.1662 155.689L13.753 116.71L210.75 5.19422V84.428L81.1662 155.689ZM233.25 5.19503L430.207 116.731L362.834 155.651L233.25 84.4276V5.19503ZM354.786 339.713L425.121 380.185L233.25 488.806V406.641L354.786 339.713ZM210.555 406.642V488.727L18.8728 380.182L88.9822 339.714L210.555 406.642ZM2.66406 363.53V136.294L70.6328 175.591V324.306L2.66406 363.53Z" fill="#ECDDFF" stroke="#865DBD" stroke-width="5"/>
<path d="M309.75 69C306.579 69 304 71.5785 304 74.75V109.25C304 112.421 306.579 115 309.75 115H329.875C333.046 115 335.625 112.421 335.625 109.25V74.75C335.625 71.5785 333.046 69 329.875 69H309.75ZM316.938 107.812H322.688C323.478 107.812 324.125 108.459 324.125 109.25C324.125 110.041 323.478 110.688 322.688 110.688H316.938C316.147 110.688 315.5 110.041 315.5 109.25C315.5 108.459 316.147 107.812 316.938 107.812Z" fill="#865DBD"/>
<path fill-rule="evenodd" clip-rule="evenodd" d="M122.932 65.9881C118.1 67.3956 113.804 70.2269 110.606 74.1126C107.407 77.9982 105.453 82.7577 105 87.7702H116.429C117.095 80.1425 119.306 72.7302 122.929 65.9845L122.932 65.9881ZM116.429 92.2345H105C105.452 97.2472 107.405 102.007 110.603 105.893C113.801 109.78 118.097 112.612 122.929 114.02C119.306 107.274 117.095 99.8622 116.429 92.2345ZM128.657 114.974C124.327 108.106 121.672 100.317 120.907 92.2345H138.889C138.124 100.317 135.469 108.106 131.139 114.974C130.312 115.015 129.484 115.015 128.657 114.974ZM136.871 114.017C141.703 112.608 145.998 109.777 149.196 105.891C152.394 102.006 154.347 97.2465 154.8 92.2345H143.371C142.705 99.8622 140.494 107.274 136.871 114.02V114.017ZM143.371 87.7702H154.8C154.348 82.7575 152.395 77.9975 149.197 74.1113C145.999 70.225 141.703 67.3929 136.871 65.9845C140.494 72.7302 142.705 80.1425 143.371 87.7702ZM128.657 65.0309C129.485 64.9897 130.315 64.9897 131.143 65.0309C135.472 71.8987 138.125 79.688 138.889 87.7702H120.911C121.686 79.6381 124.346 71.8416 128.657 65.0309Z" fill="#865DBD"/>
<path d="M58.6094 235.986L37.8672 230.06C37.656 230 37.4343 229.985 37.2168 230.016L16.6836 232.949C15.9401 233.058 15.2605 233.431 14.7682 233.998C14.2758 234.566 14.0032 235.291 14 236.043V258.332C14.0032 259.083 14.2758 259.809 14.7682 260.376C15.2605 260.944 15.9401 261.316 16.6836 261.426L37.2168 264.355C37.2898 264.367 37.3636 264.373 37.4375 264.375C37.5828 264.375 37.7275 264.354 37.8672 264.314L58.6094 258.389C59.2599 258.2 59.8321 257.806 60.2404 257.266C60.6488 256.726 60.8714 256.068 60.875 255.391V238.984C60.8714 238.307 60.6488 237.649 60.2404 237.109C59.8321 236.568 59.2599 236.175 58.6094 235.986ZM24.9375 245.625H21.8125C21.3981 245.625 21.0007 245.79 20.7076 246.083C20.4146 246.376 20.25 246.773 20.25 247.187C20.25 247.602 20.4146 247.999 20.7076 248.292C21.0007 248.585 21.3981 248.75 21.8125 248.75H24.9375V259.449L17.125 258.332V236.043L24.9375 234.926V245.625ZM35.875 261.012L28.0625 259.894V248.75H31.1875C31.6019 248.75 31.9993 248.585 32.2924 248.292C32.5854 247.999 32.75 247.602 32.75 247.187C32.75 246.773 32.5854 246.376 32.2924 246.083C31.9993 245.79 31.6019 245.625 31.1875 245.625H28.0625V234.48L35.875 233.363V261.012Z" fill="#865DBD"/>
<path d="M409.917 259.333H412C412.553 259.333 413.082 259.553 413.473 259.944C413.864 260.334 414.083 260.864 414.083 261.417H428.667V265.583H414.083C414.083 266.136 413.864 266.666 413.473 267.056C413.082 267.447 412.553 267.667 412 267.667H403.667C403.114 267.667 402.584 267.447 402.194 267.056C401.803 266.666 401.583 266.136 401.583 265.583H387V261.417H401.583C401.583 260.864 401.803 260.334 402.194 259.944C402.584 259.553 403.114 259.333 403.667 259.333H405.75V255.167H391.167C390.614 255.167 390.084 254.947 389.694 254.556C389.303 254.166 389.083 253.636 389.083 253.083V244.75C389.083 244.197 389.303 243.668 389.694 243.277C390.084 242.886 390.614 242.667 391.167 242.667H424.5C425.053 242.667 425.582 242.886 425.973 243.277C426.364 243.668 426.583 244.197 426.583 244.75V253.083C426.583 253.636 426.364 254.166 425.973 254.556C425.582 254.947 425.053 255.167 424.5 255.167H409.917V259.333ZM391.167 226H424.5C425.053 226 425.582 226.219 425.973 226.61C426.364 227.001 426.583 227.531 426.583 228.083V236.417C426.583 236.969 426.364 237.499 425.973 237.89C425.582 238.281 425.053 238.5 424.5 238.5H391.167C390.614 238.5 390.084 238.281 389.694 237.89C389.303 237.499 389.083 236.969 389.083 236.417V228.083C389.083 227.531 389.303 227.001 389.694 226.61C390.084 226.219 390.614 226 391.167 226ZM401.583 234.333H403.667V230.167H401.583V234.333ZM401.583 251H403.667V246.833H401.583V251ZM393.25 230.167V234.333H397.417V230.167H393.25ZM393.25 246.833V251H397.417V246.833H393.25Z" fill="#865DBD"/>
<path d="M146.333 417.333C146.333 421.937 138.871 425.667 129.667 425.667C120.462 425.667 113 421.937 113 417.333V408.946C114.046 410.231 115.531 411.298 117.183 412.123C120.458 413.76 124.875 414.729 129.667 414.729C134.458 414.729 138.875 413.76 142.15 412.125C143.802 411.298 145.287 410.229 146.333 408.946V417.333Z" fill="#865DBD"/>
<path d="M129.667 402.229C134.458 402.229 138.875 401.26 142.15 399.625C143.802 398.798 145.287 397.729 146.333 396.446V404.833C146.333 405.875 142.612 408.148 140.752 409.329C137.996 410.706 134.079 411.604 129.667 411.604C125.254 411.604 121.337 410.708 118.581 409.329C116.125 408.1 113 405.875 113 404.833V396.446C114.046 397.731 115.531 398.798 117.183 399.623C120.458 401.26 124.875 402.229 129.667 402.229Z" fill="#865DBD"/>
<path d="M140.752 396.829C137.996 398.206 134.079 399.104 129.667 399.104C125.254 399.104 121.337 398.208 118.581 396.829C117.508 396.408 115.096 395.073 113.421 392.915C113.278 392.734 113.175 392.526 113.117 392.303C113.059 392.08 113.047 391.848 113.083 391.621C113.131 391.312 113.198 390.994 113.283 390.796C114.725 386.929 121.512 384 129.667 384C137.821 384 144.608 386.929 146.05 390.796C146.135 390.994 146.202 391.312 146.25 391.621C146.286 391.848 146.275 392.08 146.217 392.303C146.159 392.526 146.055 392.734 145.912 392.915C144.237 395.073 141.825 396.408 140.752 396.829Z" fill="#865DBD"/>
<path d="M335.312 394.583C334.613 391.037 332.703 387.843 329.911 385.548C327.118 383.253 323.615 381.999 320 382C313.979 382 308.75 385.417 306.146 390.417C303.084 390.748 300.252 392.198 298.195 394.49C296.137 396.782 295 399.753 295 402.833C295 409.729 300.604 415.333 307.5 415.333H334.583C340.333 415.333 345 410.667 345 404.917C345 399.417 340.729 394.958 335.312 394.583Z" fill="#865DBD"/>
<path d="M342 171.735L227 105.34C223.906 103.553 220.094 103.553 217 105.34L102 171.735C98.906 173.521 97 176.823 97 180.395V188.238C106.25 187.289 115.5 183.194 124.75 175.953C146.042 159.286 167.333 159.286 188.625 175.953C209.917 192.62 231.208 192.62 252.5 175.953C273.792 159.286 295.083 159.286 316.375 175.953C326.583 183.944 336.792 188.104 347 188.432V180.395C347 176.823 345.094 173.521 342 171.735Z" fill="#865DBD"/>
<path d="M227 388.241L342 321.846C345.094 320.06 347 316.758 347 313.186V188.432C336.792 188.104 326.583 183.944 316.375 175.953C295.083 159.286 273.792 159.286 252.5 175.953C231.208 192.62 209.917 192.62 188.625 175.953C167.333 159.286 146.042 159.286 124.75 175.953C115.5 183.194 106.25 187.289 97 188.238V313.186C97 316.758 98.906 320.06 102 321.846L217 388.241C220.094 390.028 223.906 390.028 227 388.241Z" fill="#ECDDFF"/>
<path d="M121.433 227.38V224.384H142.833L184.135 294.897V298H162.842L121.433 227.38ZM163.805 251.241V224.384H184.135V286.016L163.805 251.241ZM121.433 236.261L141.763 271.036V298H121.433V236.261Z" fill="#865DBD"/>
<path d="M198.025 224.384H219.425V298H198.025V224.384ZM223.919 224.384H251.097V240.755H223.919V224.384ZM223.919 252.632H246.068V269.003H223.919V252.632ZM223.919 281.629H251.097V298H223.919V281.629Z" fill="#865DBD"/>
<path d="M257.968 224.384H282.257L329.016 298H304.62L257.968 224.384ZM297.13 239.364L305.262 224.384H328.695L308.365 257.126L297.13 239.364ZM278.084 264.616L289.212 282.271L280.973 298H257.54L278.084 264.616Z" fill="#865DBD"/>
</svg>
