<svg width="444" height="493" viewBox="0 0 444 493" fill="none" xmlns="http://www.w3.org/2000/svg">
<path d="M441.172 362.608L373.203 323.4V174.685L441.172 135.388V362.608ZM13.5889 115.804L210.586 4.28797V83.5217L81.0021 154.783L13.5889 115.804ZM233.086 4.28878L430.043 115.825L362.67 154.744L233.086 83.5213V4.28878ZM354.621 338.806L424.957 379.279L233.086 487.899V405.735L354.621 338.806ZM210.391 405.735V487.821L18.7087 379.276L88.8181 338.807L210.391 405.735ZM70.4688 323.4L2.5 362.624V135.388L70.4688 174.685V323.4Z" fill="#0C0911" stroke="#865DBD" stroke-width="5"/>
<path d="M309.586 68.0938C306.414 68.0938 303.836 70.6723 303.836 73.8438V108.344C303.836 111.515 306.414 114.094 309.586 114.094H329.711C332.882 114.094 335.461 111.515 335.461 108.344V73.8438C335.461 70.6723 332.882 68.0938 329.711 68.0938H309.586ZM316.773 106.906H322.523C323.314 106.906 323.961 107.553 323.961 108.344C323.961 109.134 323.314 109.781 322.523 109.781H316.773C315.983 109.781 315.336 109.134 315.336 108.344C315.336 107.553 315.983 106.906 316.773 106.906Z" fill="#865DBD"/>
<path fill-rule="evenodd" clip-rule="evenodd" d="M122.768 65.0818C117.936 66.4894 113.64 69.3207 110.441 73.2063C107.243 77.0919 105.289 81.8515 104.836 86.8639H116.265C116.931 79.2363 119.142 71.8239 122.765 65.0782L122.768 65.0818ZM116.265 91.3282H104.836C105.288 96.3409 107.241 101.101 110.439 104.987C113.637 108.873 117.933 111.706 122.765 113.114C119.142 106.368 116.931 98.9559 116.265 91.3282ZM128.493 114.068C124.163 107.2 121.508 99.4107 120.743 91.3282H138.725C137.96 99.4107 135.305 107.2 130.975 114.068C130.148 114.109 129.32 114.109 128.493 114.068ZM136.707 113.11C141.539 111.702 145.834 108.871 149.032 104.985C152.23 101.099 154.183 96.3403 154.636 91.3282H143.207C142.541 98.9559 140.33 106.368 136.707 113.114V113.11ZM143.207 86.8639H154.636C154.184 81.8513 152.231 77.0913 149.033 73.205C145.835 69.3187 141.539 66.4867 136.707 65.0782C140.33 71.8239 142.541 79.2363 143.207 86.8639ZM128.493 64.1247C129.321 64.0834 130.151 64.0834 130.979 64.1247C135.308 70.9925 137.961 78.7818 138.725 86.8639H120.747C121.522 78.7318 124.182 70.9354 128.493 64.1247Z" fill="#865DBD"/>
<path d="M58.4453 235.08L37.7031 229.154C37.4919 229.094 37.2703 229.078 37.0527 229.109L16.5195 232.043C15.7761 232.152 15.0965 232.525 14.6041 233.092C14.1117 233.66 13.8392 234.385 13.8359 235.137V257.426C13.8392 258.177 14.1117 258.903 14.6041 259.47C15.0965 260.038 15.7761 260.41 16.5195 260.519L37.0527 263.449C37.1258 263.461 37.1995 263.467 37.2734 263.469C37.4188 263.469 37.5634 263.448 37.7031 263.408L58.4453 257.482C59.0959 257.294 59.668 256.9 60.0764 256.36C60.4847 255.82 60.7073 255.162 60.7109 254.484V238.078C60.7073 237.401 60.4847 236.743 60.0764 236.202C59.668 235.662 59.0959 235.268 58.4453 235.08ZM24.7734 244.719H21.6484C21.234 244.719 20.8366 244.883 20.5436 245.176C20.2506 245.469 20.0859 245.867 20.0859 246.281C20.0859 246.696 20.2506 247.093 20.5436 247.386C20.8366 247.679 21.234 247.844 21.6484 247.844H24.7734V258.543L16.9609 257.426V235.137L24.7734 234.019V244.719ZM35.7109 260.105L27.8984 258.988V247.844H31.0234C31.4378 247.844 31.8353 247.679 32.1283 247.386C32.4213 247.093 32.5859 246.696 32.5859 246.281C32.5859 245.867 32.4213 245.469 32.1283 245.176C31.8353 244.883 31.4378 244.719 31.0234 244.719H27.8984V233.574L35.7109 232.457V260.105Z" fill="#865DBD"/>
<path d="M409.753 258.427H411.836C412.388 258.427 412.918 258.647 413.309 259.037C413.7 259.428 413.919 259.958 413.919 260.51H428.503V264.677H413.919C413.919 265.23 413.7 265.76 413.309 266.15C412.918 266.541 412.388 266.76 411.836 266.76H403.503C402.95 266.76 402.42 266.541 402.029 266.15C401.639 265.76 401.419 265.23 401.419 264.677H386.836V260.51H401.419C401.419 259.958 401.639 259.428 402.029 259.037C402.42 258.647 402.95 258.427 403.503 258.427H405.586V254.26H391.003C390.45 254.26 389.92 254.041 389.529 253.65C389.139 253.26 388.919 252.73 388.919 252.177V243.844C388.919 243.291 389.139 242.761 389.529 242.371C389.92 241.98 390.45 241.76 391.003 241.76H424.336C424.888 241.76 425.418 241.98 425.809 242.371C426.2 242.761 426.419 243.291 426.419 243.844V252.177C426.419 252.73 426.2 253.26 425.809 253.65C425.418 254.041 424.888 254.26 424.336 254.26H409.753V258.427ZM391.003 225.094H424.336C424.888 225.094 425.418 225.313 425.809 225.704C426.2 226.095 426.419 226.625 426.419 227.177V235.51C426.419 236.063 426.2 236.593 425.809 236.984C425.418 237.374 424.888 237.594 424.336 237.594H391.003C390.45 237.594 389.92 237.374 389.529 236.984C389.139 236.593 388.919 236.063 388.919 235.51V227.177C388.919 226.625 389.139 226.095 389.529 225.704C389.92 225.313 390.45 225.094 391.003 225.094ZM401.419 233.427H403.503V229.26H401.419V233.427ZM401.419 250.094H403.503V245.927H401.419V250.094ZM393.086 229.26V233.427H397.253V229.26H393.086ZM393.086 245.927V250.094H397.253V245.927H393.086Z" fill="#865DBD"/>
<path d="M146.169 416.427C146.169 421.031 138.707 424.76 129.503 424.76C120.298 424.76 112.836 421.031 112.836 416.427V408.04C113.882 409.325 115.367 410.392 117.019 411.217C120.294 412.854 124.711 413.823 129.503 413.823C134.294 413.823 138.711 412.854 141.986 411.219C143.638 410.392 145.123 409.323 146.169 408.04V416.427Z" fill="#865DBD"/>
<path d="M129.503 401.323C134.294 401.323 138.711 400.354 141.986 398.719C143.638 397.892 145.123 396.823 146.169 395.54V403.927C146.169 404.969 142.448 407.242 140.588 408.423C137.832 409.8 133.915 410.698 129.503 410.698C125.09 410.698 121.173 409.802 118.417 408.423C115.961 407.194 112.836 404.969 112.836 403.927V395.54C113.882 396.825 115.367 397.892 117.019 398.717C120.294 400.354 124.711 401.323 129.503 401.323Z" fill="#865DBD"/>
<path d="M140.588 395.923C137.832 397.3 133.915 398.198 129.503 398.198C125.09 398.198 121.173 397.302 118.417 395.923C117.344 395.502 114.932 394.167 113.257 392.008C113.114 391.828 113.011 391.619 112.953 391.397C112.895 391.174 112.883 390.942 112.919 390.715C112.967 390.406 113.034 390.087 113.119 389.89C114.561 386.023 121.348 383.094 129.503 383.094C137.657 383.094 144.444 386.023 145.886 389.89C145.971 390.087 146.038 390.406 146.086 390.715C146.122 390.942 146.111 391.174 146.053 391.397C145.995 391.619 145.891 391.828 145.748 392.008C144.073 394.167 141.661 395.502 140.588 395.923Z" fill="#865DBD"/>
<path d="M335.148 393.677C334.449 390.131 332.539 386.937 329.746 384.642C326.954 382.347 323.451 381.093 319.836 381.094C313.815 381.094 308.586 384.51 305.982 389.51C302.92 389.841 300.088 391.292 298.031 393.584C295.973 395.876 294.836 398.847 294.836 401.927C294.836 408.823 300.44 414.427 307.336 414.427H334.419C340.169 414.427 344.836 409.76 344.836 404.01C344.836 398.51 340.565 394.052 335.148 393.677Z" fill="#865DBD"/>
<path d="M342 170.735L227 104.34C223.906 102.553 220.094 102.553 217 104.34L102 170.735C98.906 172.521 97 175.823 97 179.395V187.238C106.25 186.289 115.5 182.194 124.75 174.953C146.042 158.286 167.333 158.286 188.625 174.953C209.917 191.62 231.208 191.62 252.5 174.953C273.792 158.286 295.083 158.286 316.375 174.953C326.583 182.944 336.792 187.104 347 187.432V179.395C347 175.823 345.094 172.521 342 170.735Z" fill="#865DBD"/>
<path d="M227 387.241L342 320.846C345.094 319.06 347 315.758 347 312.186V187.432C336.792 187.104 326.583 182.944 316.375 174.953C295.083 158.286 273.792 158.286 252.5 174.953C231.208 191.62 209.917 191.62 188.625 174.953C167.333 158.286 146.042 158.286 124.75 174.953C115.5 182.194 106.25 186.289 97 187.238V312.186C97 315.758 98.906 319.06 102 320.846L217 387.241C220.094 389.028 223.906 389.028 227 387.241Z" fill="#0C0911"/>
<path d="M121.433 226.38V223.384H142.833L184.135 293.897V297H162.842L121.433 226.38ZM163.805 250.241V223.384H184.135V285.016L163.805 250.241ZM121.433 235.261L141.763 270.036V297H121.433V235.261Z" fill="#865DBD"/>
<path d="M198.025 223.384H219.425V297H198.025V223.384ZM223.919 223.384H251.097V239.755H223.919V223.384ZM223.919 251.632H246.068V268.003H223.919V251.632ZM223.919 280.629H251.097V297H223.919V280.629Z" fill="#865DBD"/>
<path d="M257.968 223.384H282.257L329.016 297H304.62L257.968 223.384ZM297.13 238.364L305.262 223.384H328.695L308.365 256.126L297.13 238.364ZM278.084 263.616L289.212 281.271L280.973 297H257.54L278.084 263.616Z" fill="#865DBD"/>
</svg>
