<svg width="444" height="494" viewBox="0 0 444 494" fill="none" xmlns="http://www.w3.org/2000/svg">
<path d="M441.336 363.515L373.367 324.306V175.591L441.336 136.294V363.515ZM81.1662 155.689L13.753 116.71L210.75 5.19422V84.428L81.1662 155.689ZM233.25 5.19503L430.207 116.731L362.834 155.651L233.25 84.4276V5.19503ZM354.786 339.713L425.121 380.185L233.25 488.806V406.641L354.786 339.713ZM210.555 406.642V488.727L18.8728 380.182L88.9822 339.714L210.555 406.642ZM2.66406 363.53V136.294L70.6328 175.591V324.306L2.66406 363.53Z" fill="#F5F5F5" stroke="#865CBD" stroke-width="5"/>
<path d="M309.75 69C306.579 69 304 71.5785 304 74.75V109.25C304 112.421 306.579 115 309.75 115H329.875C333.046 115 335.625 112.421 335.625 109.25V74.75C335.625 71.5785 333.046 69 329.875 69H309.75ZM316.938 107.812H322.688C323.478 107.812 324.125 108.459 324.125 109.25C324.125 110.041 323.478 110.688 322.688 110.688H316.938C316.147 110.688 315.5 110.041 315.5 109.25C315.5 108.459 316.147 107.812 316.938 107.812Z" fill="#865CBD"/>
<path fill-rule="evenodd" clip-rule="evenodd" d="M122.932 65.9881C118.1 67.3956 113.804 70.2269 110.606 74.1126C107.407 77.9982 105.453 82.7577 105 87.7702H116.429C117.095 80.1425 119.306 72.7302 122.929 65.9845L122.932 65.9881ZM116.429 92.2345H105C105.452 97.2472 107.405 102.007 110.603 105.893C113.801 109.78 118.097 112.612 122.929 114.02C119.306 107.274 117.095 99.8622 116.429 92.2345ZM128.657 114.974C124.327 108.106 121.672 100.317 120.907 92.2345H138.889C138.124 100.317 135.469 108.106 131.139 114.974C130.312 115.015 129.484 115.015 128.657 114.974ZM136.871 114.017C141.703 112.608 145.998 109.777 149.196 105.891C152.394 102.006 154.347 97.2465 154.8 92.2345H143.371C142.705 99.8622 140.494 107.274 136.871 114.02V114.017ZM143.371 87.7702H154.8C154.348 82.7575 152.395 77.9975 149.197 74.1113C145.999 70.225 141.703 67.3929 136.871 65.9845C140.494 72.7302 142.705 80.1425 143.371 87.7702ZM128.657 65.0309C129.485 64.9897 130.315 64.9897 131.143 65.0309C135.472 71.8987 138.125 79.688 138.889 87.7702H120.911C121.686 79.6381 124.346 71.8416 128.657 65.0309Z" fill="#865CBD"/>
<path d="M58.6094 235.986L37.8672 230.06C37.656 230 37.4343 229.985 37.2168 230.016L16.6836 232.949C15.9401 233.058 15.2605 233.431 14.7682 233.998C14.2758 234.566 14.0032 235.291 14 236.043V258.332C14.0032 259.083 14.2758 259.809 14.7682 260.376C15.2605 260.944 15.9401 261.316 16.6836 261.426L37.2168 264.355C37.2898 264.367 37.3636 264.373 37.4375 264.375C37.5828 264.375 37.7275 264.354 37.8672 264.314L58.6094 258.389C59.2599 258.2 59.8321 257.806 60.2404 257.266C60.6488 256.726 60.8714 256.068 60.875 255.391V238.984C60.8714 238.307 60.6488 237.649 60.2404 237.109C59.8321 236.568 59.2599 236.175 58.6094 235.986ZM24.9375 245.625H21.8125C21.3981 245.625 21.0007 245.79 20.7076 246.083C20.4146 246.376 20.25 246.773 20.25 247.187C20.25 247.602 20.4146 247.999 20.7076 248.292C21.0007 248.585 21.3981 248.75 21.8125 248.75H24.9375V259.449L17.125 258.332V236.043L24.9375 234.926V245.625ZM35.875 261.012L28.0625 259.894V248.75H31.1875C31.6019 248.75 31.9993 248.585 32.2924 248.292C32.5854 247.999 32.75 247.602 32.75 247.187C32.75 246.773 32.5854 246.376 32.2924 246.083C31.9993 245.79 31.6019 245.625 31.1875 245.625H28.0625V234.48L35.875 233.363V261.012Z" fill="#865CBD"/>
<path d="M409.917 259.333H412C412.553 259.333 413.082 259.553 413.473 259.944C413.864 260.334 414.083 260.864 414.083 261.417H428.667V265.583H414.083C414.083 266.136 413.864 266.666 413.473 267.056C413.082 267.447 412.553 267.667 412 267.667H403.667C403.114 267.667 402.584 267.447 402.194 267.056C401.803 266.666 401.583 266.136 401.583 265.583H387V261.417H401.583C401.583 260.864 401.803 260.334 402.194 259.944C402.584 259.553 403.114 259.333 403.667 259.333H405.75V255.167H391.167C390.614 255.167 390.084 254.947 389.694 254.556C389.303 254.166 389.083 253.636 389.083 253.083V244.75C389.083 244.197 389.303 243.668 389.694 243.277C390.084 242.886 390.614 242.667 391.167 242.667H424.5C425.053 242.667 425.582 242.886 425.973 243.277C426.364 243.668 426.583 244.197 426.583 244.75V253.083C426.583 253.636 426.364 254.166 425.973 254.556C425.582 254.947 425.053 255.167 424.5 255.167H409.917V259.333ZM391.167 226H424.5C425.053 226 425.582 226.219 425.973 226.61C426.364 227.001 426.583 227.531 426.583 228.083V236.417C426.583 236.969 426.364 237.499 425.973 237.89C425.582 238.281 425.053 238.5 424.5 238.5H391.167C390.614 238.5 390.084 238.281 389.694 237.89C389.303 237.499 389.083 236.969 389.083 236.417V228.083C389.083 227.531 389.303 227.001 389.694 226.61C390.084 226.219 390.614 226 391.167 226ZM401.583 234.333H403.667V230.167H401.583V234.333ZM401.583 251H403.667V246.833H401.583V251ZM393.25 230.167V234.333H397.417V230.167H393.25ZM393.25 246.833V251H397.417V246.833H393.25Z" fill="#865CBD"/>
<path d="M146.333 417.333C146.333 421.937 138.871 425.667 129.667 425.667C120.462 425.667 113 421.937 113 417.333V408.946C114.046 410.231 115.531 411.298 117.183 412.123C120.458 413.76 124.875 414.729 129.667 414.729C134.458 414.729 138.875 413.76 142.15 412.125C143.802 411.298 145.287 410.229 146.333 408.946V417.333Z" fill="#865CBD"/>
<path d="M129.667 402.229C134.458 402.229 138.875 401.26 142.15 399.625C143.802 398.798 145.287 397.729 146.333 396.446V404.833C146.333 405.875 142.612 408.148 140.752 409.329C137.996 410.706 134.079 411.604 129.667 411.604C125.254 411.604 121.337 410.708 118.581 409.329C116.125 408.1 113 405.875 113 404.833V396.446C114.046 397.731 115.531 398.798 117.183 399.623C120.458 401.26 124.875 402.229 129.667 402.229Z" fill="#865CBD"/>
<path d="M140.752 396.829C137.996 398.206 134.079 399.104 129.667 399.104C125.254 399.104 121.337 398.208 118.581 396.829C117.508 396.408 115.096 395.073 113.421 392.915C113.278 392.734 113.175 392.526 113.117 392.303C113.059 392.08 113.047 391.848 113.083 391.621C113.131 391.312 113.198 390.994 113.283 390.796C114.725 386.929 121.512 384 129.667 384C137.821 384 144.608 386.929 146.05 390.796C146.135 390.994 146.202 391.312 146.25 391.621C146.286 391.848 146.275 392.08 146.217 392.303C146.159 392.526 146.055 392.734 145.913 392.915C144.238 395.073 141.825 396.408 140.752 396.829Z" fill="#865CBD"/>
<path d="M335.312 394.583C334.613 391.037 332.703 387.843 329.911 385.548C327.118 383.253 323.615 381.999 320 382C313.979 382 308.75 385.417 306.146 390.417C303.084 390.748 300.252 392.198 298.195 394.49C296.137 396.782 295 399.753 295 402.833C295 409.729 300.604 415.333 307.5 415.333H334.583C340.333 415.333 345 410.667 345 404.917C345 399.417 340.729 394.958 335.312 394.583Z" fill="#865CBD"/>
<path d="M99.5 176.612L222 105.887L344.5 176.612V318.063L222 388.788L99.5 318.063V176.612Z" fill="#F5F5F5" stroke="#865CBD" stroke-width="5"/>
<path d="M119.613 191.4V188.32H141.613L184.073 260.81V264H162.183L119.613 191.4ZM163.173 215.93V188.32H184.073V251.68L163.173 215.93ZM119.613 200.53L140.513 236.28V264H119.613V200.53ZM198.353 188.32H220.353V264H198.353V188.32ZM224.973 188.32H252.913V205.15H224.973V188.32ZM224.973 217.36H247.743V234.19H224.973V217.36ZM224.973 247.17H252.913V264H224.973V247.17ZM259.976 188.32H284.946L333.016 264H307.936L259.976 188.32ZM300.236 203.72L308.596 188.32H332.686L311.786 221.98L300.236 203.72ZM280.656 229.68L292.096 247.83L283.626 264H259.536L280.656 229.68Z" fill="#865CBD"/>
<path d="M116.409 275.48H124.409V303H116.409V275.48ZM126.089 275.48H135.449V281.6H126.089V275.48ZM126.089 286.84H133.969V292.96H126.089V286.84ZM150.655 303.32C147.855 303.32 145.695 303.093 144.175 302.64C142.655 302.187 141.535 301.453 140.815 300.44C140.149 299.507 139.735 298.32 139.575 296.88C139.415 295.44 139.335 293.293 139.335 290.44V275.48H147.335V292.04C147.335 293.027 147.362 293.973 147.415 294.88C147.469 295.6 147.589 296.12 147.775 296.44C147.962 296.76 148.282 296.96 148.735 297.04C149.135 297.147 149.775 297.2 150.655 297.2H151.575C151.789 297.2 152.029 297.173 152.295 297.12V303.28C152.109 303.307 151.842 303.32 151.495 303.32H150.655ZM153.975 275.48H161.975V290.44C161.975 293.053 161.922 295.027 161.815 296.36C161.709 297.693 161.415 298.813 160.935 299.72C160.402 300.76 159.589 301.56 158.495 302.12C157.402 302.68 155.895 303.04 153.975 303.2V275.48ZM167.073 275.48H175.073V303H167.073V275.48ZM176.753 296.56H185.313V303H176.753V296.56ZM188.713 275.48H196.713V303H188.713V275.48ZM198.393 296.56H206.953V303H198.393V296.56ZM229.314 281.8C228.434 281.693 226.887 281.547 224.674 281.36C223.447 281.307 222.461 281.28 221.714 281.28C220.754 281.28 219.847 281.307 218.994 281.36V275.16H219.994C222.181 275.16 224.447 275.307 226.794 275.6C227.541 275.707 228.381 275.853 229.314 276.04V281.8ZM222.714 294.88C222.714 294.32 222.674 293.92 222.594 293.68C222.514 293.413 222.381 293.24 222.194 293.16C222.007 293.053 221.687 292.973 221.234 292.92L216.314 292.32C213.407 292 211.447 291.053 210.434 289.48C209.981 288.813 209.674 288 209.514 287.04C209.354 286.08 209.274 284.907 209.274 283.52C209.274 280.56 210.034 278.427 211.554 277.12C212.781 276.053 214.701 275.427 217.314 275.24V283.28C217.314 283.627 217.327 283.92 217.354 284.16C217.381 284.4 217.434 284.587 217.514 284.72C217.594 284.88 217.727 285 217.914 285.08C218.101 285.133 218.381 285.173 218.754 285.2L224.274 285.88C225.421 286.04 226.354 286.24 227.074 286.48C227.794 286.72 228.407 287.093 228.914 287.6C230.114 288.853 230.714 291.08 230.714 294.28C230.714 297.667 229.967 300.04 228.474 301.4C227.807 302.013 226.994 302.467 226.034 302.76C225.101 303.027 223.994 303.2 222.714 303.28V294.88ZM220.594 303.32C217.927 303.32 215.447 303.2 213.154 302.96C211.794 302.827 210.767 302.693 210.074 302.56V296.72C211.647 296.853 213.447 296.987 215.474 297.12C216.754 297.173 217.661 297.2 218.194 297.2C219.634 297.2 220.581 297.16 221.034 297.08V303.32H220.594ZM232.606 275.48H255.126V281.88H232.606V275.48ZM239.846 283.48H247.846V303H239.846V283.48ZM262.531 275.48H263.211L266.371 286.44L261.771 303H253.771L262.531 275.48ZM271.531 298.12H264.851L266.531 291.96H269.731L265.011 275.48H272.331L281.091 303H272.931L271.531 298.12ZM292.872 275.2C293.086 275.173 293.419 275.16 293.872 275.16H294.912C296.699 275.16 298.446 275.293 300.152 275.56C301.032 275.693 301.712 275.827 302.192 275.96V281.68C301.792 281.653 301.126 281.587 300.192 281.48C298.939 281.347 297.846 281.28 296.912 281.28C295.872 281.28 295.032 281.32 294.392 281.4C293.779 281.453 293.272 281.56 292.872 281.72V275.2ZM294.912 303.32C292.246 303.32 290.126 303.093 288.552 302.64C287.006 302.16 285.832 301.373 285.032 300.28C284.259 299.24 283.726 297.867 283.432 296.16C283.166 294.427 283.032 292.12 283.032 289.24C283.032 286.707 283.126 284.653 283.312 283.08C283.526 281.507 283.899 280.187 284.432 279.12C284.992 278.027 285.806 277.187 286.872 276.6C287.966 275.987 289.406 275.573 291.192 275.36V289.24C291.192 290.733 291.219 292.173 291.272 293.56C291.326 294.627 291.526 295.427 291.872 295.96C292.246 296.493 292.819 296.827 293.592 296.96C294.339 297.12 295.446 297.2 296.912 297.2C298.432 297.2 299.726 297.133 300.792 297C301.219 296.973 301.739 296.907 302.352 296.8V302.6C301.046 302.893 299.566 303.093 297.912 303.2C297.006 303.28 296.006 303.32 294.912 303.32ZM306.487 275.48H314.487V303H306.487V275.48ZM316.167 293.36V284.76L322.487 275.48H331.207L321.727 288.44L331.327 303H322.367L316.167 293.36Z" fill="#865CBD"/>
</svg>
