<svg width="444" height="493" viewBox="0 0 444 493" fill="none" xmlns="http://www.w3.org/2000/svg">
<path d="M441.172 362.608L373.203 323.4V174.685L441.172 135.388V362.608ZM13.5889 115.804L210.586 4.28797V83.5217L81.0021 154.783L13.5889 115.804ZM233.086 4.28878L430.043 115.825L362.67 154.744L233.086 83.5213V4.28878ZM354.621 338.806L424.957 379.279L233.086 487.899V405.735L354.621 338.806ZM210.391 405.735V487.821L18.7087 379.276L88.8181 338.807L210.391 405.735ZM70.4688 323.4L2.5 362.624V135.388L70.4688 174.685V323.4Z" fill="#121212" stroke="#B17AF9" stroke-width="5"/>
<path d="M309.586 68.0938C306.414 68.0938 303.836 70.6723 303.836 73.8438V108.344C303.836 111.515 306.414 114.094 309.586 114.094H329.711C332.882 114.094 335.461 111.515 335.461 108.344V73.8438C335.461 70.6723 332.882 68.0938 329.711 68.0938H309.586ZM316.773 106.906H322.523C323.314 106.906 323.961 107.553 323.961 108.344C323.961 109.134 323.314 109.781 322.523 109.781H316.773C315.983 109.781 315.336 109.134 315.336 108.344C315.336 107.553 315.983 106.906 316.773 106.906Z" fill="#B17AF9"/>
<path fill-rule="evenodd" clip-rule="evenodd" d="M122.768 65.0818C117.936 66.4894 113.64 69.3207 110.441 73.2063C107.243 77.0919 105.289 81.8515 104.836 86.8639H116.265C116.931 79.2363 119.142 71.8239 122.765 65.0782L122.768 65.0818ZM116.265 91.3282H104.836C105.288 96.3409 107.241 101.101 110.439 104.987C113.637 108.873 117.933 111.706 122.765 113.114C119.142 106.368 116.931 98.9559 116.265 91.3282ZM128.493 114.068C124.163 107.2 121.508 99.4107 120.743 91.3282H138.725C137.96 99.4107 135.305 107.2 130.975 114.068C130.148 114.109 129.32 114.109 128.493 114.068ZM136.707 113.11C141.539 111.702 145.834 108.871 149.032 104.985C152.23 101.099 154.183 96.3403 154.636 91.3282H143.207C142.541 98.9559 140.33 106.368 136.707 113.114V113.11ZM143.207 86.8639H154.636C154.184 81.8513 152.231 77.0913 149.033 73.205C145.835 69.3187 141.539 66.4867 136.707 65.0782C140.33 71.8239 142.541 79.2363 143.207 86.8639ZM128.493 64.1247C129.321 64.0834 130.151 64.0834 130.979 64.1247C135.308 70.9925 137.961 78.7818 138.725 86.8639H120.747C121.522 78.7318 124.182 70.9354 128.493 64.1247Z" fill="#B17AF9"/>
<path d="M58.4453 235.08L37.7031 229.154C37.4919 229.094 37.2703 229.078 37.0527 229.109L16.5195 232.043C15.7761 232.152 15.0965 232.525 14.6041 233.092C14.1117 233.66 13.8392 234.385 13.8359 235.137V257.426C13.8392 258.177 14.1117 258.903 14.6041 259.47C15.0965 260.038 15.7761 260.41 16.5195 260.519L37.0527 263.449C37.1258 263.461 37.1995 263.467 37.2734 263.469C37.4188 263.469 37.5634 263.448 37.7031 263.408L58.4453 257.482C59.0959 257.294 59.668 256.9 60.0764 256.36C60.4847 255.82 60.7073 255.162 60.7109 254.484V238.078C60.7073 237.401 60.4847 236.743 60.0764 236.202C59.668 235.662 59.0959 235.268 58.4453 235.08ZM24.7734 244.719H21.6484C21.234 244.719 20.8366 244.883 20.5436 245.176C20.2506 245.469 20.0859 245.867 20.0859 246.281C20.0859 246.696 20.2506 247.093 20.5436 247.386C20.8366 247.679 21.234 247.844 21.6484 247.844H24.7734V258.543L16.9609 257.426V235.137L24.7734 234.019V244.719ZM35.7109 260.105L27.8984 258.988V247.844H31.0234C31.4378 247.844 31.8353 247.679 32.1283 247.386C32.4213 247.093 32.5859 246.696 32.5859 246.281C32.5859 245.867 32.4213 245.469 32.1283 245.176C31.8353 244.883 31.4378 244.719 31.0234 244.719H27.8984V233.574L35.7109 232.457V260.105Z" fill="#B17AF9"/>
<path d="M409.753 258.427H411.836C412.388 258.427 412.918 258.647 413.309 259.037C413.7 259.428 413.919 259.958 413.919 260.51H428.503V264.677H413.919C413.919 265.23 413.7 265.76 413.309 266.15C412.918 266.541 412.388 266.76 411.836 266.76H403.503C402.95 266.76 402.42 266.541 402.029 266.15C401.639 265.76 401.419 265.23 401.419 264.677H386.836V260.51H401.419C401.419 259.958 401.639 259.428 402.029 259.037C402.42 258.647 402.95 258.427 403.503 258.427H405.586V254.26H391.003C390.45 254.26 389.92 254.041 389.529 253.65C389.139 253.26 388.919 252.73 388.919 252.177V243.844C388.919 243.291 389.139 242.761 389.529 242.371C389.92 241.98 390.45 241.76 391.003 241.76H424.336C424.888 241.76 425.418 241.98 425.809 242.371C426.2 242.761 426.419 243.291 426.419 243.844V252.177C426.419 252.73 426.2 253.26 425.809 253.65C425.418 254.041 424.888 254.26 424.336 254.26H409.753V258.427ZM391.003 225.094H424.336C424.888 225.094 425.418 225.313 425.809 225.704C426.2 226.095 426.419 226.625 426.419 227.177V235.51C426.419 236.063 426.2 236.593 425.809 236.984C425.418 237.374 424.888 237.594 424.336 237.594H391.003C390.45 237.594 389.92 237.374 389.529 236.984C389.139 236.593 388.919 236.063 388.919 235.51V227.177C388.919 226.625 389.139 226.095 389.529 225.704C389.92 225.313 390.45 225.094 391.003 225.094ZM401.419 233.427H403.503V229.26H401.419V233.427ZM401.419 250.094H403.503V245.927H401.419V250.094ZM393.086 229.26V233.427H397.253V229.26H393.086ZM393.086 245.927V250.094H397.253V245.927H393.086Z" fill="#B17AF9"/>
<path d="M146.169 416.427C146.169 421.031 138.707 424.76 129.503 424.76C120.298 424.76 112.836 421.031 112.836 416.427V408.04C113.882 409.325 115.367 410.392 117.019 411.217C120.294 412.854 124.711 413.823 129.503 413.823C134.294 413.823 138.711 412.854 141.986 411.219C143.638 410.392 145.123 409.323 146.169 408.04V416.427Z" fill="#B17AF9"/>
<path d="M129.503 401.323C134.294 401.323 138.711 400.354 141.986 398.719C143.638 397.892 145.123 396.823 146.169 395.54V403.927C146.169 404.969 142.448 407.242 140.588 408.423C137.832 409.8 133.915 410.698 129.503 410.698C125.09 410.698 121.173 409.802 118.417 408.423C115.961 407.194 112.836 404.969 112.836 403.927V395.54C113.882 396.825 115.367 397.892 117.019 398.717C120.294 400.354 124.711 401.323 129.503 401.323Z" fill="#B17AF9"/>
<path d="M140.588 395.923C137.832 397.3 133.915 398.198 129.503 398.198C125.09 398.198 121.173 397.302 118.417 395.923C117.344 395.502 114.932 394.167 113.257 392.008C113.114 391.828 113.011 391.619 112.953 391.397C112.895 391.174 112.883 390.942 112.919 390.715C112.967 390.406 113.034 390.087 113.119 389.89C114.561 386.023 121.348 383.094 129.503 383.094C137.657 383.094 144.444 386.023 145.886 389.89C145.971 390.087 146.038 390.406 146.086 390.715C146.122 390.942 146.111 391.174 146.053 391.397C145.995 391.619 145.891 391.828 145.748 392.008C144.073 394.167 141.661 395.502 140.588 395.923Z" fill="#B17AF9"/>
<path d="M335.148 393.677C334.449 390.131 332.539 386.937 329.746 384.642C326.954 382.347 323.451 381.093 319.836 381.094C313.815 381.094 308.586 384.51 305.982 389.51C302.92 389.841 300.088 391.292 298.031 393.584C295.973 395.876 294.836 398.847 294.836 401.927C294.836 408.823 300.44 414.427 307.336 414.427H334.419C340.169 414.427 344.836 409.76 344.836 404.01C344.836 398.51 340.565 394.052 335.148 393.677Z" fill="#B17AF9"/>
<path d="M99.3359 175.706L221.836 104.981L344.336 175.706V317.157L221.836 387.882L99.3359 317.157V175.706Z" fill="#121212" stroke="#B17AF9" stroke-width="5"/>
<path d="M118.449 190.494V187.414H140.449L182.909 259.904V263.094H161.019L118.449 190.494ZM162.009 215.024V187.414H182.909V250.774L162.009 215.024ZM118.449 199.624L139.349 235.374V263.094H118.449V199.624ZM197.189 187.414H219.189V263.094H197.189V187.414ZM223.809 187.414H251.749V204.244H223.809V187.414ZM223.809 216.454H246.579V233.284H223.809V216.454ZM223.809 246.264H251.749V263.094H223.809V246.264ZM258.812 187.414H283.782L331.852 263.094H306.772L258.812 187.414ZM299.072 202.814L307.432 187.414H331.522L310.622 221.074L299.072 202.814ZM279.492 228.774L290.932 246.924L282.462 263.094H258.372L279.492 228.774Z" fill="#B17AF9"/>
<path d="M115.245 274.574H123.245V302.094H115.245V274.574ZM124.925 274.574H134.285V280.694H124.925V274.574ZM124.925 285.934H132.805V292.054H124.925V285.934ZM149.491 302.414C146.691 302.414 144.531 302.187 143.011 301.734C141.491 301.28 140.371 300.547 139.651 299.534C138.985 298.6 138.571 297.414 138.411 295.974C138.251 294.534 138.171 292.387 138.171 289.534V274.574H146.171V291.134C146.171 292.12 146.198 293.067 146.251 293.974C146.305 294.694 146.425 295.214 146.611 295.534C146.798 295.854 147.118 296.054 147.571 296.134C147.971 296.24 148.611 296.294 149.491 296.294H150.411C150.625 296.294 150.865 296.267 151.131 296.214V302.374C150.945 302.4 150.678 302.414 150.331 302.414H149.491ZM152.811 274.574H160.811V289.534C160.811 292.147 160.758 294.12 160.651 295.454C160.545 296.787 160.251 297.907 159.771 298.814C159.238 299.854 158.425 300.654 157.331 301.214C156.238 301.774 154.731 302.134 152.811 302.294V274.574ZM165.909 274.574H173.909V302.094H165.909V274.574ZM175.589 295.654H184.149V302.094H175.589V295.654ZM187.549 274.574H195.549V302.094H187.549V274.574ZM197.229 295.654H205.789V302.094H197.229V295.654ZM228.15 280.894C227.27 280.787 225.723 280.64 223.51 280.454C222.283 280.4 221.297 280.374 220.55 280.374C219.59 280.374 218.683 280.4 217.83 280.454V274.254H218.83C221.017 274.254 223.283 274.4 225.63 274.694C226.377 274.8 227.217 274.947 228.15 275.134V280.894ZM221.55 293.974C221.55 293.414 221.51 293.014 221.43 292.774C221.35 292.507 221.217 292.334 221.03 292.254C220.843 292.147 220.523 292.067 220.07 292.014L215.15 291.414C212.243 291.094 210.283 290.147 209.27 288.574C208.817 287.907 208.51 287.094 208.35 286.134C208.19 285.174 208.11 284 208.11 282.614C208.11 279.654 208.87 277.52 210.39 276.214C211.617 275.147 213.537 274.52 216.15 274.334V282.374C216.15 282.72 216.163 283.014 216.19 283.254C216.217 283.494 216.27 283.68 216.35 283.814C216.43 283.974 216.563 284.094 216.75 284.174C216.937 284.227 217.217 284.267 217.59 284.294L223.11 284.974C224.257 285.134 225.19 285.334 225.91 285.574C226.63 285.814 227.243 286.187 227.75 286.694C228.95 287.947 229.55 290.174 229.55 293.374C229.55 296.76 228.803 299.134 227.31 300.494C226.643 301.107 225.83 301.56 224.87 301.854C223.937 302.12 222.83 302.294 221.55 302.374V293.974ZM219.43 302.414C216.763 302.414 214.283 302.294 211.99 302.054C210.63 301.92 209.603 301.787 208.91 301.654V295.814C210.483 295.947 212.283 296.08 214.31 296.214C215.59 296.267 216.497 296.294 217.03 296.294C218.47 296.294 219.417 296.254 219.87 296.174V302.414H219.43ZM231.442 274.574H253.962V280.974H231.442V274.574ZM238.682 282.574H246.682V302.094H238.682V282.574ZM261.367 274.574H262.047L265.207 285.534L260.607 302.094H252.607L261.367 274.574ZM270.367 297.214H263.687L265.367 291.054H268.567L263.847 274.574H271.167L279.927 302.094H271.767L270.367 297.214ZM291.708 274.294C291.922 274.267 292.255 274.254 292.708 274.254H293.748C295.535 274.254 297.282 274.387 298.988 274.654C299.868 274.787 300.548 274.92 301.028 275.054V280.774C300.628 280.747 299.962 280.68 299.028 280.574C297.775 280.44 296.682 280.374 295.748 280.374C294.708 280.374 293.868 280.414 293.228 280.494C292.615 280.547 292.108 280.654 291.708 280.814V274.294ZM293.748 302.414C291.082 302.414 288.962 302.187 287.388 301.734C285.842 301.254 284.668 300.467 283.868 299.374C283.095 298.334 282.562 296.96 282.268 295.254C282.002 293.52 281.868 291.214 281.868 288.334C281.868 285.8 281.962 283.747 282.148 282.174C282.362 280.6 282.735 279.28 283.268 278.214C283.828 277.12 284.642 276.28 285.708 275.694C286.802 275.08 288.242 274.667 290.028 274.454V288.334C290.028 289.827 290.055 291.267 290.108 292.654C290.162 293.72 290.362 294.52 290.708 295.054C291.082 295.587 291.655 295.92 292.428 296.054C293.175 296.214 294.282 296.294 295.748 296.294C297.268 296.294 298.562 296.227 299.628 296.094C300.055 296.067 300.575 296 301.188 295.894V301.694C299.882 301.987 298.402 302.187 296.748 302.294C295.842 302.374 294.842 302.414 293.748 302.414ZM305.323 274.574H313.323V302.094H305.323V274.574ZM315.003 292.454V283.854L321.323 274.574H330.043L320.563 287.534L330.163 302.094H321.203L315.003 292.454Z" fill="#B17AF9"/>
</svg>
