<svg width="250" height="286" viewBox="0 0 250 286" fill="none" xmlns="http://www.w3.org/2000/svg">
<path d="M245 67.735L130 1.33974C126.906 -0.446583 123.094 -0.44658 120 1.33975L5 67.735C1.90599 69.5213 0 72.8226 0 76.3952V84.2381C9.25 83.2887 18.5 79.1937 27.75 71.953C49.0417 55.2863 70.3333 55.2863 91.625 71.953C112.917 88.6197 134.208 88.6197 155.5 71.953C176.792 55.2863 198.083 55.2863 219.375 71.953C229.583 79.9439 239.792 84.1035 250 84.4319V76.3952C250 72.8226 248.094 69.5213 245 67.735Z" fill="#865DBD"/>
<path d="M130 284.241L245 217.846C248.094 216.06 250 212.758 250 209.186V84.4319C239.792 84.1035 229.583 79.9439 219.375 71.953C198.083 55.2863 176.792 55.2863 155.5 71.953C134.208 88.6197 112.917 88.6197 91.625 71.953C70.3333 55.2863 49.0417 55.2863 27.75 71.953C18.5 79.1937 9.25 83.2887 0 84.2381V209.186C0 212.758 1.90599 216.06 5 217.846L120 284.241C123.094 286.028 126.906 286.028 130 284.241Z" fill="#ECDDFF"/>
<path d="M24.4325 123.38V120.384H45.8325L87.1345 190.897V194H65.8415L24.4325 123.38ZM66.8045 147.241V120.384H87.1345V182.016L66.8045 147.241ZM24.4325 132.261L44.7625 167.036V194H24.4325V132.261Z" fill="#865DBD"/>
<path d="M101.025 120.384H122.425V194H101.025V120.384ZM126.919 120.384H154.097V136.755H126.919V120.384ZM126.919 148.632H149.068V165.003H126.919V148.632ZM126.919 177.629H154.097V194H126.919V177.629Z" fill="#865DBD"/>
<path d="M160.968 120.384H185.257L232.016 194H207.62L160.968 120.384ZM200.13 135.364L208.262 120.384H231.695L211.365 153.126L200.13 135.364ZM181.084 160.616L192.212 178.271L183.973 194H160.54L181.084 160.616Z" fill="#865DBD"/>
</svg>
